# xmcd
#
# Track frame offsets:
#	150
#	25455
#	43576
#	63482
#	80498
#	104875
#	119003
#	136172
#	153319
#	171477
#	191365
#	209735
#	227811
#
# Disc length: 3281 seconds
#
# Revision: 0
# Processed by: cddbd v1.4PL0 Copyright (c) Steve Scherf et al.
# Submitted via: EasyCDDAExtractor 4.6.9.1
#
DISCID=c20ccf0d
DTITLE=Toby Keith - Shock'n Y'all
DYEAR=2003
DGENRE=Country
TTITLE0=I Love This Bar               
TTITLE1=Whiskey Girl                  
TTITLE2=American Soldier              
TTITLE3=If I Was Jesus                
TTITLE4=Time For Me To Ride           
TTITLE5=Sweet                         
TTITLE6=Don't Leave I Think I Love You
TTITLE7=Don't Leave, I Think I Love Yo
TTITLE8=Nights I Can't Remember, Frien
TTITLE9=Baddest Boots                 
TTITLE10=The Critic                    
TTITLE11=The Taliban Song              
TTITLE12=Weed With Willie              
EXTD=
EXTT0=
EXTT1=
EXTT2=
EXTT3=
EXTT4=
EXTT5=
EXTT6=
EXTT7=
EXTT8=
EXTT9=
EXTT10=
EXTT11=
EXTT12=
PLAYORDER=
